{"title":"Slice 2018 1080p WEB-DL DD 5.1 x264 [MW]","magnet":"magnet:?xt=urn:btih:6aad0b8108a8d08e8a9269694f5fdba0b2f0bc3b&dn=Slice+2018+1080p+WEB-DL+DD+5.1+x264+%5BMW%5D&tr=udp%3A%2F%2Ftracker.leechers-paradise.org%3A6969&tr=udp%3A%2F%2Fzer0day.ch%3A1337&tr=udp%3A%2F%2Fopen.demonii.com%3A1337&tr=udp%3A%2F%2Ftracker.coppersurfer.tk%3A6969&tr=udp%3A%2F%2Fexodus.desync.com%3A6969","uploader":"MFreaky","categoryP":"video","categoryS":"hd___movies","size":"1766223430","seeders":"9","leechers":"16","description":" <a href=\"https://pichub.site/image/Dbnnv\" rel=\"nofollow\" target=\"_NEW\">https://pichub.site/image/Dbnnv</a> <a href=\"\nhttps://pichub.site/image/Db3Yd\" rel=\"nofollow\" target=\"_NEW\">\nhttps://pichub.site/image/Db3Yd</a> <a href=\"\nhttps://pichub.site/image/DbZt9\" rel=\"nofollow\" target=\"_NEW\">\nhttps://pichub.site/image/DbZt9</a> <a href=\"\nhttps://pichub.site/image/Db12u\" rel=\"nofollow\" target=\"_NEW\">\nhttps://pichub.site/image/Db12u</a> <a href=\"\nhttps://pichub.site/image/Db9jR\" rel=\"nofollow\" target=\"_NEW\">\nhttps://pichub.site/image/Db9jR</a>\r\n\r\nIMDB <a href=\"\nhttps://www.imdb.com/title/tt4411234/\" rel=\"nofollow\" target=\"_NEW\">\nhttps://www.imdb.com/title/tt4411234/</a>\r\n\r\nVideo\r\nFormat                                   : AVC\r\nFormat/Info                              : Advanced Video Codec\r\nFormat profile                           : High@L4.1\r\nFormat settings                          : CABAC / 4 Ref Frames\r\nFormat settings, CABAC                   : Yes\r\nFormat settings, RefFrames               : 4 frames\r\nCodec ID                                 : V_MPEG4/ISO/AVC\r\nDuration                                 : 1 h 22 min\r\nBit rate                                 : 2 500 kb/s\r\nWidth                                    : 1 916 pixels\r\nHeight                                   : 800 pixels\r\nDisplay aspect ratio                     : 2.40:1\r\nFrame rate mode                          : Constant\r\nFrame rate                               : 23.976 (24000/1001) FPS\r\nColor space                              : YUV\r\nChroma subsampling                       : 4:2:0\r\nBit depth                                : 8 bits\r\nScan type                                : Progressive\r\nBits/(Pixel*Frame)                       : 0.068\r\nStream size                              : 1.42 GiB (86%)\r\n\r\nAudio\r\nFormat                                   : AC-3\r\nFormat/Info                              : Audio Coding 3\r\nCodec ID                                 : A_AC3\r\nDuration                                 : 1 h 22 min\r\nBit rate mode                            : Constant\r\nBit rate                                 : 384 kb/s\r\nChannel(s)                               : 6 channels\r\nChannel positions                        : Front: L C R, Side: L R, LFE\r\nSampling rate                            : 48.0 kHz\r\nFrame rate                               : 31.250 FPS (1536 SPF)\r\nBit depth                                : 16 bits\r\nCompression mode                         : Lossy\r\nStream size                              : 228 MiB (14%)\r\nLanguage                                 : English","last_updated":"2018-09-12T12:13:47.085Z","parsed":{"xt":"urn:btih:6aad0b8108a8d08e8a9269694f5fdba0b2f0bc3b","dn":"Slice 2018 1080p WEB-DL DD 5.1 x264 [MW]","tr":["udp://exodus.desync.com:6969","udp://open.demonii.com:1337","udp://tracker.coppersurfer.tk:6969","udp://tracker.leechers-paradise.org:6969","udp://zer0day.ch:1337"],"infoHash":"6aad0b8108a8d08e8a9269694f5fdba0b2f0bc3b","infoHashBuffer":{"type":"Buffer","data":[106,173,11,129,8,168,208,142,138,146,105,105,79,95,219,160,178,240,188,59]},"name":"Slice 2018 1080p WEB-DL DD 5.1 x264 [MW]","announce":["udp://exodus.desync.com:6969","udp://open.demonii.com:1337","udp://tracker.coppersurfer.tk:6969","udp://tracker.leechers-paradise.org:6969","udp://zer0day.ch:1337"],"urlList":[]}}